{"title":"Ip.Man.The.Final.Fight.2013.1080p.HDTV.X264.AC3-SmY","uid":8323702,"size":3770215514,"categoryP":"video","categoryS":"hd___movies","magnet":"?xt=urn:btih:64df9942799eccb10f767f4cbf3a68f3b8dba010&amp;dn=Ip.Man.The.Final.Fight.2013.1080p.HDTV.X264.AC3-SmY&amp;tr=udp%3A%2F%2Ftracker.openbittorrent.com%3A80&amp;tr=udp%3A%2F%2Fopen.demonii.com%3A1337&amp;tr=udp%3A%2F%2Ftracker.coppersurfer.tk%3A6969&amp;tr=udp%3A%2F%2Fexodus.desync.com%3A6969","seeders":1,"leechers":0,"uploader":"Gh0stNet","files":2,"time":1364751953,"description":"Format : Matroska\n     File size : 3.51 GiB\n     Duration : 1h 40mn\n     Overall bit rate : 5 015 Kbps\n     Writing application : AVI-Mux GUI 1.17.8, Aug 30 2008  12:36:58\n     Writing library : matroska muxer by Alexander Noe, build date Aug 30 2008\n  Video #1\n     ID : 1\n     Format : AVC\n     Format/Info : Advanced Video Codec\n     Format profile : &lt;a class=&quot;__cf_email__&quot; href=&quot;/cdn-cgi/l/email-protection&quot; data-cfemail=&quot;96d4f7e5f3fafff8f3d6daa3b8a6&quot;&gt;[email&amp;#160;protected]&lt;/a&gt;&lt;script cf-hash='f9e31' type=&quot;text/javascript&quot;&gt;\n/* &lt;![CDATA[ */!function(){try{var t=&quot;currentScript&quot;in document?document.currentScript:function(){for(var t=document.getElementsByTagName(&quot;script&quot;),e=t.length;e--;)if(t[e].getAttribute(&quot;cf-hash&quot;))return t[e]}();if(t&amp;&amp;t.previousSibling){var e,r,n,i,c=t.previousSibling,a=c.getAttribute(&quot;data-cfemail&quot;);if(a){for(e=&quot;&quot;,r=parseInt(a.substr(0,2),16),n=2;a.length-n;n+=2)i=parseInt(a.substr(n,2),16)^r,e+=String.fromCharCode(i);e=document.createTextNode(e),c.parentNode.replaceChild(e,c)}}}catch(u){}}();/* ]]&gt; */&lt;/script&gt;\n     Format settings, CABAC : No\n     Format settings, ReFrames : 8 frames\n     Format settings, GOP : M=1, N=13\n     Codec ID : H264\n     Duration : 1h 40mn\n     Bit rate : 4 723 Kbps\n     Width : 1 920 pixels\n     Height : 1 080 pixels\n     Display aspect ratio : 16:9\n     Frame rate mode : Variable\n     Frame rate : 30.000 fps\n     Color space : YUV\n     Chroma subsampling : 4:2:0\n     Bit depth : 8 bits\n     Scan type : Progressive\n     Bits/(Pixel*Frame) : 0.076\n     Stream size : 3.31 GiB (94%)\n     Language : English\n  Audio #2\n     ID : 2\n     Format : AC-3\n     Format/Info : Audio Coding 3\n     Mode extension : CM (complete main)\n     Codec ID : A_AC3\n     Duration : 1h 40mn\n     Bit rate mode : Constant\n     Bit rate : 192 Kbps\n     Channel(s) : 6 channels\n     Channel positions : Front: L C R, Side: L R, LFE\n     Sampling rate : 48.0 KHz\n     Bit depth : 16 bits\n     Compression mode : Lossy\n     Stream size : 138 MiB (4%)\n     Language : English\n\nScreens: &lt;a href=&quot;\nhttp://i.imgur.com/JPgZyjz.jpg&quot; rel=&quot;nofollow&quot; target=&quot;_NEW&quot;&gt;\nhttp://i.imgur.com/JPgZyjz.jpg&lt;/a&gt; &lt;a href=&quot;\nhttp://i.imgur.com/XUAayFu.jpg&quot; rel=&quot;nofollow&quot; target=&quot;_NEW&quot;&gt;\nhttp://i.imgur.com/XUAayFu.jpg&lt;/a&gt; &lt;a href=&quot;\nhttp://i.imgur.com/yJ8Rqgp.jpg&quot; rel=&quot;nofollow&quot; target=&quot;_NEW&quot;&gt;\nhttp://i.imgur.com/yJ8Rqgp.jpg&lt;/a&gt; &lt;a href=&quot;\nhttp://i.imgur.com/kBkB0qk.jpg&quot; rel=&quot;nofollow&quot; target=&quot;_NEW&quot;&gt;\nhttp://i.imgur.com/kBkB0qk.jpg&lt;/a&gt; &lt;a href=&quot;\nhttp://i.imgur.com/Jo2mBIZ.jpg&quot; rel=&quot;nofollow&quot; target=&quot;_NEW&quot;&gt;\nhttp://i.imgur.com/Jo2mBIZ.jpg&lt;/a&gt;","torrent":{"xt":"urn:btih:64df9942799eccb10f767f4cbf3a68f3b8dba010","amp;dn":"Ip.Man.The.Final.Fight.2013.1080p.HDTV.X264.AC3-SmY","amp;tr":["udp%3A%2F%2Ftracker.openbittorrent.com%3A80","udp%3A%2F%2Fopen.demonii.com%3A1337","udp%3A%2F%2Ftracker.coppersurfer.tk%3A6969","udp%3A%2F%2Fexodus.desync.com%3A6969"],"infoHash":"64df9942799eccb10f767f4cbf3a68f3b8dba010","infoHashBuffer":{"type":"Buffer","data":[100,223,153,66,121,158,204,177,15,118,127,76,191,58,104,243,184,219,160,16]},"announce":[],"urlList":[]}}